<svg xmlns="http://www.w3.org/2000/svg" xmlns:xlink="http://www.w3.org/1999/xlink" zoomAndPan="magnify" viewBox="0 0 375 374.999991" preserveAspectRatio="xMidYMid meet" version="1.0"><path fill="#000000" d="M 56.25 203.367188 L 124.039062 250.960938 L 171.632812 318.75 L 152.882812 337.5 L 37.5 222.117188 Z M 56.25 203.367188 " fill-opacity="1" fill-rule="nonzero"/><path fill="#000000" d="M 134.132812 240.867188 L 150 265.382812 L 346.152344 86.539062 L 375 0 L 288.460938 28.847656 L 109.617188 225 Z M 134.132812 240.867188 " fill-opacity="1" fill-rule="nonzero"/><path fill="#000000" d="M 27.402344 366.347656 L 8.652344 347.597656 L 85.097656 250.960938 L 124.039062 289.902344 Z M 27.402344 366.347656 " fill-opacity="1" fill-rule="nonzero"/><path fill="#000000" d="M 54.808594 347.597656 C 54.808594 348.492188 54.765625 349.390625 54.675781 350.28125 C 54.585938 351.175781 54.457031 352.0625 54.28125 352.941406 C 54.105469 353.824219 53.886719 354.691406 53.628906 355.550781 C 53.367188 356.410156 53.066406 357.253906 52.722656 358.082031 C 52.378906 358.914062 51.996094 359.722656 51.570312 360.515625 C 51.148438 361.304688 50.6875 362.074219 50.1875 362.820312 C 49.691406 363.566406 49.15625 364.289062 48.585938 364.980469 C 48.019531 365.675781 47.414062 366.339844 46.78125 366.972656 C 46.148438 367.609375 45.484375 368.210938 44.789062 368.78125 C 44.09375 369.347656 43.375 369.882812 42.628906 370.382812 C 41.882812 370.878906 41.113281 371.339844 40.320312 371.765625 C 39.53125 372.1875 38.71875 372.570312 37.890625 372.914062 C 37.0625 373.257812 36.21875 373.558594 35.359375 373.820312 C 34.5 374.082031 33.628906 374.296875 32.75 374.472656 C 31.871094 374.648438 30.984375 374.78125 30.089844 374.867188 C 29.195312 374.957031 28.300781 375 27.402344 375 C 26.507812 375 25.609375 374.957031 24.71875 374.867188 C 23.824219 374.78125 22.9375 374.648438 22.058594 374.472656 C 21.175781 374.296875 20.308594 374.082031 19.449219 373.820312 C 18.589844 373.558594 17.746094 373.257812 16.917969 372.914062 C 16.085938 372.570312 15.277344 372.1875 14.484375 371.765625 C 13.695312 371.339844 12.925781 370.878906 12.179688 370.382812 C 11.433594 369.882812 10.710938 369.347656 10.019531 368.78125 C 9.324219 368.210938 8.660156 367.609375 8.027344 366.972656 C 7.390625 366.339844 6.789062 365.675781 6.21875 364.980469 C 5.652344 364.289062 5.117188 363.566406 4.617188 362.820312 C 4.121094 362.074219 3.660156 361.304688 3.234375 360.515625 C 2.8125 359.722656 2.429688 358.914062 2.085938 358.082031 C 1.742188 357.253906 1.441406 356.410156 1.179688 355.550781 C 0.917969 354.691406 0.703125 353.824219 0.527344 352.941406 C 0.351562 352.0625 0.21875 351.175781 0.132812 350.28125 C 0.0429688 349.390625 0 348.492188 0 347.597656 C 0 346.699219 0.0429688 345.804688 0.132812 344.910156 C 0.21875 344.015625 0.351562 343.128906 0.527344 342.25 C 0.703125 341.371094 0.917969 340.5 1.179688 339.640625 C 1.441406 338.78125 1.742188 337.9375 2.085938 337.109375 C 2.429688 336.28125 2.8125 335.46875 3.234375 334.679688 C 3.660156 333.886719 4.121094 333.117188 4.617188 332.371094 C 5.117188 331.625 5.652344 330.90625 6.21875 330.210938 C 6.789062 329.515625 7.390625 328.851562 8.027344 328.21875 C 8.660156 327.585938 9.324219 326.980469 10.019531 326.414062 C 10.710938 325.84375 11.433594 325.308594 12.179688 324.8125 C 12.925781 324.3125 13.695312 323.851562 14.484375 323.429688 C 15.277344 323.003906 16.085938 322.621094 16.917969 322.277344 C 17.746094 321.933594 18.589844 321.632812 19.449219 321.371094 C 20.308594 321.113281 21.175781 320.894531 22.058594 320.71875 C 22.9375 320.542969 23.824219 320.414062 24.71875 320.324219 C 25.609375 320.238281 26.507812 320.191406 27.402344 320.191406 C 28.300781 320.191406 29.195312 320.238281 30.089844 320.324219 C 30.984375 320.414062 31.871094 320.542969 32.75 320.71875 C 33.628906 320.894531 34.5 321.113281 35.359375 321.371094 C 36.21875 321.632812 37.0625 321.933594 37.890625 322.277344 C 38.71875 322.621094 39.53125 323.003906 40.320312 323.429688 C 41.113281 323.851562 41.882812 324.3125 42.628906 324.8125 C 43.375 325.308594 44.09375 325.84375 44.789062 326.414062 C 45.484375 326.980469 46.148438 327.585938 46.78125 328.21875 C 47.414062 328.851562 48.019531 329.515625 48.585938 330.210938 C 49.15625 330.90625 49.691406 331.625 50.1875 332.371094 C 50.6875 333.117188 51.148438 333.886719 51.570312 334.679688 C 51.996094 335.46875 52.378906 336.28125 52.722656 337.109375 C 53.066406 337.9375 53.367188 338.78125 53.628906 339.640625 C 53.886719 340.5 54.105469 341.371094 54.28125 342.25 C 54.457031 343.128906 54.585938 344.015625 54.675781 344.910156 C 54.765625 345.804688 54.808594 346.699219 54.808594 347.597656 Z M 54.808594 347.597656 " fill-opacity="1" fill-rule="nonzero"/></svg>