<svg xmlns="http://www.w3.org/2000/svg" xmlns:xlink="http://www.w3.org/1999/xlink" width="500" zoomAndPan="magnify" viewBox="0 0 375 374.999991" height="500" preserveAspectRatio="xMidYMid meet" version="1.0"><path fill="#000000" d="M 339.1875 60.460938 C 322.832031 41.613281 303.472656 25.316406 281.609375 12.023438 C 268.679688 4.164062 253.582031 0 237.445312 0 C 215.128906 0 194.097656 8.628906 178.363281 23.960938 C 166.898438 19.164062 154.605469 17.675781 142.816406 19.871094 C 115.765625 24.804688 96.515625 38.367188 85.503906 60.414062 C 70.648438 91.625 63.640625 120.628906 63.480469 151.695312 C 63.429688 162.660156 65.941406 174.199219 69.691406 184.765625 C 66.597656 185.949219 63.726562 187.734375 61.320312 190.148438 L 8.039062 243.421875 C 3.300781 248.15625 0.6875 254.441406 0.6875 261.132812 C 0.6875 267.835938 3.300781 274.121094 8.039062 278.855469 L 96.84375 367.675781 C 101.726562 372.546875 108.136719 374.976562 114.542969 374.976562 C 120.964844 374.976562 127.386719 372.546875 132.269531 367.664062 L 185.550781 314.378906 C 188.125 311.804688 190.007812 308.75 191.25 305.441406 C 194.441406 304.96875 197.601562 304.09375 200.515625 302.355469 C 265.726562 263.367188 311.417969 227.929688 340.203125 194.03125 C 372.601562 155.90625 372.160156 98.484375 339.1875 60.460938 Z M 150.0625 314.488281 L 87.871094 252.308594 C 82.988281 247.425781 75.078125 247.425781 70.195312 252.308594 C 65.3125 257.191406 65.3125 265.101562 70.195312 269.984375 L 132.375 332.148438 L 114.507812 349.988281 L 25.714844 261.097656 L 79.046875 207.800781 L 79.070312 207.824219 L 167.875 296.703125 Z M 321.160156 177.84375 C 294.535156 209.179688 249.625 243.859375 187.503906 280.894531 L 105.632812 199.011719 C 99.589844 192.992188 88.382812 171.472656 88.480469 151.820312 C 88.628906 124.574219 94.855469 98.9375 107.976562 71.375 C 115.277344 56.761719 128.140625 47.960938 147.308594 44.457031 C 149.371094 44.078125 151.46875 43.894531 153.582031 43.894531 C 156.078125 43.894531 158.59375 44.25 161.105469 44.765625 C 153.375 54.714844 145.761719 64.726562 138.492188 74.742188 C 134.441406 80.320312 135.6875 88.148438 141.277344 92.199219 C 143.484375 93.8125 146.0625 94.578125 148.601562 94.578125 C 152.46875 94.578125 156.277344 92.785156 158.734375 89.417969 C 168.925781 75.378906 179.679688 61.253906 190.726562 47.4375 C 190.738281 47.421875 190.742188 47.40625 190.75 47.390625 C 190.796875 47.335938 190.863281 47.308594 190.910156 47.253906 C 202.3125 33.105469 219.28125 25 237.957031 25 C 249.003906 25 259.597656 27.90625 268.621094 33.386719 C 288.261719 45.335938 305.644531 59.960938 320.292969 76.84375 C 345.257812 105.613281 345.621094 149.046875 321.160156 177.84375 Z M 321.160156 177.84375 " fill-opacity="1" fill-rule="nonzero"/></svg>