<svg xmlns="http://www.w3.org/2000/svg" xmlns:xlink="http://www.w3.org/1999/xlink" width="500" zoomAndPan="magnify" viewBox="0 0 375 374.999991" height="500" preserveAspectRatio="xMidYMid meet" version="1.0"><defs><clipPath id="126dfbea9a"><path d="M 19 18.75 L 368 18.75 L 368 356.25 L 19 356.25 Z M 19 18.75 " clip-rule="nonzero"/></clipPath><clipPath id="74a24d0962"><path d="M 1.128906 256 L 90 256 L 90 274 L 1.128906 274 Z M 1.128906 256 " clip-rule="nonzero"/></clipPath></defs><g clip-path="url(#126dfbea9a)"><path fill="#000000" d="M 352.519531 284.207031 L 320.023438 237.363281 C 299.621094 208.953125 273.636719 137.742188 272.894531 108.222656 L 272.808594 103.820312 C 272.613281 91.628906 272.394531 77.816406 264.832031 66.15625 C 253.914062 49.308594 230.09375 43.675781 212.808594 53.894531 C 201.925781 60.3125 195.296875 72.027344 194.21875 84.238281 C 176.679688 68.523438 164.96875 45.925781 154.589844 25.703125 L 151.015625 18.75 L 143.734375 21.585938 C 116.132812 32.335938 84.847656 44.523438 64.359375 69.816406 C 41.863281 97.605469 35.847656 134.875 49.40625 162.539062 L 50.242188 164.246094 L 110.257812 213.210938 L 19.160156 213.210938 L 19.160156 230.53125 L 131.492188 230.53125 L 177.226562 267.84375 L 188.171875 254.421875 L 64.191406 153.265625 C 56.949219 137.085938 58.699219 119 64.890625 103.226562 L 268.957031 287 C 291.371094 305 320.535156 317.8125 350.058594 322.957031 C 349.886719 324.507812 349.566406 326.023438 348.914062 327.457031 C 344.542969 337.097656 329.902344 339.609375 317.660156 338.664062 C 287.921875 336.488281 259.171875 322.761719 238.773438 301.023438 L 236.234375 298.320312 L 58.535156 296.75 L 58.382812 314.070312 L 228.75 315.574219 C 251.890625 338.886719 283.628906 353.539062 316.398438 355.945312 C 318.496094 356.097656 320.550781 356.171875 322.554688 356.171875 C 342.9375 356.171875 358.460938 348.335938 364.6875 334.625 C 373.722656 314.738281 358.863281 293.339844 352.519531 284.207031 Z M 221.601562 68.8125 C 230.792969 63.375 244.472656 66.601562 250.289062 75.574219 C 255.144531 83.074219 255.3125 93.285156 255.484375 104.097656 L 255.507812 105.445312 C 241.167969 106.359375 226.511719 103.472656 213.523438 97.257812 L 213.640625 97.195312 C 208.601562 87.769531 212.398438 74.242188 221.601562 68.8125 Z M 73.085938 87.296875 C 74.597656 85 76.167969 82.769531 77.828125 80.714844 C 93.769531 61.03125 119.09375 49.902344 142.761719 40.566406 C 154.179688 62.582031 167.578125 86.238281 189.019531 102.539062 C 208.167969 117.085938 233.054688 124.300781 257.054688 122.675781 C 258.753906 132.921875 261.816406 145.074219 265.746094 157.851562 L 229.535156 157.851562 L 229.535156 175.175781 L 271.503906 175.175781 C 274.519531 183.699219 277.804688 192.222656 281.269531 200.445312 L 257.242188 200.445312 L 257.242188 217.769531 L 289.039062 217.769531 C 294.648438 229.445312 300.414062 239.75 305.871094 247.347656 L 338.292969 294.082031 C 340.570312 297.363281 342.769531 300.78125 344.683594 304.214844 C 320.910156 298.78125 297.953125 288.074219 280.175781 273.808594 Z M 73.085938 87.296875 " fill-opacity="1" fill-rule="nonzero"/></g><g clip-path="url(#74a24d0962)"><path fill="#000000" d="M 1.28125 256.449219 L 89.195312 256.449219 L 89.195312 273.769531 L 1.28125 273.769531 Z M 1.28125 256.449219 " fill-opacity="1" fill-rule="nonzero"/></g></svg>